<svg xmlns="http://www.w3.org/2000/svg" width="640" height="384" viewBox="0 0 640 384">
  <defs>
    <linearGradient id="g" x1="0" y1="0" x2="1" y2="1">
      <stop offset="0" stop-color="#a78bfa"/>
      <stop offset="1" stop-color="#66f2ff"/>
    </linearGradient>
  </defs>
  <rect width="640" height="384" rx="24" fill="#0b0f17"/>
  <rect x="82" y="78" width="476" height="228" rx="18" fill="rgba(0,0,0,0.2)" stroke="#92afff" stroke-opacity="0.18"/>
  <g fill="url(#g)" fill-opacity="0.55">
    <rect x="110" y="100" width="26" height="26" rx="6"/>
    <rect x="110" y="140" width="26" height="26" rx="6"/>
    <rect x="110" y="180" width="26" height="26" rx="6"/>
    <rect x="110" y="220" width="26" height="26" rx="6"/>
    <rect x="110" y="260" width="26" height="26" rx="6"/>
    <rect x="504" y="100" width="26" height="26" rx="6"/>
    <rect x="504" y="140" width="26" height="26" rx="6"/>
    <rect x="504" y="180" width="26" height="26" rx="6"/>
    <rect x="504" y="220" width="26" height="26" rx="6"/>
    <rect x="504" y="260" width="26" height="26" rx="6"/>
  </g>
  <text x="170" y="210" fill="#f6f7ff" fill-opacity="0.85" font-family="ui-monospace, Menlo, Consolas, monospace" font-size="28" letter-spacing="2">
    MOGAMBO
  </text>
  <text x="48" y="54" fill="#f6f7ff" fill-opacity="0.7" font-family="ui-monospace, Menlo, Consolas, monospace" font-size="18" letter-spacing="2">CINEMA</text>
</svg>

